<svg className="bi bi-code" fill="currentColor" xmlns="http://www.w3.org/2000/svg" viewBox="0 0 512 512" fill="currentColor" stroke-width="0" height="1em" width="1em" >
  <g transform="translate(55.97 11.263)">
    <path d="M268.926 90.475c28.338 0 42.075 15.976 41.876 31.951-.199 15.976-14.333 31.951-41.732 31.951l-10.607-.365-1.618-63.814 12.225.277h-.144Z"  transform="rotate(-131 255.679 92.163)" />
    <path d="M215.719 279.653c56.713 2.292 50.757 67.705-4.464 63.844L4.859 328.959l-10.857 41.306s-60.593-12.806-64.478-13.994l24.619-80.525c2.281-7.27 4.403-14.468 15.25-13.318l246.326 17.225Z"  transform="rotate(-55 -65.941 266.49)" />
    <path d="M158.597 394.356c28.338 0 42.075 15.976 41.876 31.951-.199 15.976-14.333 31.951-41.732 31.951l-12.978.499-2.381-63.84 15.359-.561h-.144Z"  transform="rotate(50 145.35 396.228)" />
    <path d="M746.838 234.456c56.713 2.292 50.757 67.705-4.464 63.844l-206.396-14.538-10.879 40.04c-.511-.688-59.542-9.815-64.048-11.543l24.211-81.71c2.281-7.27 4.403-14.468 15.25-13.318l246.326 17.225Z"  transform="rotate(125 465.178 221.294)" />
  </g>
  <g transform="translate(55.97 11.263)">
    <path  d="m-25.149 195.481 126.206.163 126.239-.163h233.546c11.25 0 18 10.5 18 28.004v55.996c0 17.5-6.75 28-18 28H-25.149l-27-17.476c-29.98-19.281-44.999-24.52-44.999-38.52 0-14.004 15.019-19.213 44.999-38.379l27-17.625Z" transform="rotate(-43 190.847 251.481)"/>
  </g>
</svg>