<svg xmlns="http://www.w3.org/2000/svg" width="512" height="512" className="bi bi-code" fill="currentColor">
 <g>
 <g id="svg_3" >
   <g id="svg_9"  fill="#f2f2f2">
    <path id="svg_7" d="m275.60513,83.81362c-25.11336,-25.57661 12.09771,-62.23171 36.84178,-37.25828l17.66359,18.352l-35.77585,36.08669"  fill="#f2f2f2" /><g id="svg_2"  fill="#f2f2f2">
     <path id="svg_8" d="m199.66802,48.17361c25.5765,-25.11336 62.23165,12.09765 37.25828,36.84178l-169.59783,169.53428l34.76655,38.04906l-34.07314,33.09715l-56.24797,-54.0185c-0.01152,0.40509 -18.83852,-16.62007 -1.15655,-34.77903"  fill="#f2f2f2" />
     <path id="svg_5" d="m312.33205,458.27509c-25.57661,25.11336 -62.23171,-12.09771 -37.25828,-36.84178l169.59778,-169.53434l-34.76655,-36.17413l34.07308,-34.97213l56.24802,54.01856c0.01152,-0.40509 18.83847,16.62001 1.15655,34.77903"  fill="#f2f2f2" />
     <path id="svg_6" d="m236.68277,419.98445c25.11336,25.57661 -12.09771,62.23171 -36.84178,37.25828l-17.66359,-18.352l35.77585,-36.08669"  fill="#f2f2f2" />
     <path  id="svg_1" d="m66.1255,364.55185l328.1241,-328.7185c9.94454,-7.06574 17.87013,-5.04694 23.77709,0l55.87619,55.87619c7.57041,8.12388 6.0563,18.77115 0,24.37157l-326.93523,326.34084l-101.64719,36.85451c-18.3635,4.94222 -22.09084,-3.23768 -17.23842,-15.45508l38.04346,-99.26953z" fill="#f2f2f2" />
    </g>
   </g>
  </g>
 </g>
</svg>